<svg width="215" height="30" viewBox="0 0 215 30" fill="none" xmlns="http://www.w3.org/2000/svg">
<path d="M15.084 28.064C14.532 28.472 13.848 28.784 13.032 29C12.24 29.192 11.4 29.288 10.512 29.288C8.208 29.288 6.42 28.7 5.148 27.524C3.9 26.348 3.276 24.62 3.276 22.34V14.384H0.288V10.064H3.276V5.348H8.892V10.064H13.716V14.384H8.892V22.268C8.892 23.084 9.096 23.72 9.504 24.176C9.936 24.608 10.536 24.824 11.304 24.824C12.192 24.824 12.948 24.584 13.572 24.104L15.084 28.064ZM23.6005 12.188C24.2725 11.252 25.1725 10.544 26.3005 10.064C27.4525 9.584 28.7725 9.344 30.2605 9.344V14.528C29.6365 14.48 29.2165 14.456 29.0005 14.456C27.3925 14.456 26.1325 14.912 25.2205 15.824C24.3085 16.712 23.8525 18.056 23.8525 19.856V29H18.2365V9.632H23.6005V12.188ZM33.5998 9.632H39.2158V29H33.5998V9.632ZM36.4078 6.932C35.3758 6.932 34.5358 6.632 33.8878 6.032C33.2398 5.432 32.9158 4.688 32.9158 3.8C32.9158 2.912 33.2398 2.168 33.8878 1.568C34.5358 0.967998 35.3758 0.667998 36.4078 0.667998C37.4398 0.667998 38.2798 0.955998 38.9278 1.532C39.5758 2.108 39.8998 2.828 39.8998 3.692C39.8998 4.628 39.5758 5.408 38.9278 6.032C38.2798 6.632 37.4398 6.932 36.4078 6.932ZM56.9199 28.064C56.3679 28.472 55.6839 28.784 54.8679 29C54.0759 29.192 53.2359 29.288 52.3479 29.288C50.0439 29.288 48.2559 28.7 46.9839 27.524C45.7359 26.348 45.1119 24.62 45.1119 22.34V14.384H42.1239V10.064H45.1119V5.348H50.7279V10.064H55.5519V14.384H50.7279V22.268C50.7279 23.084 50.9319 23.72 51.3399 24.176C51.7719 24.608 52.3719 24.824 53.1399 24.824C54.0279 24.824 54.7839 24.584 55.4079 24.104L56.9199 28.064ZM68.6908 29.288C66.6508 29.288 64.8148 28.868 63.1828 28.028C61.5748 27.164 60.3148 25.976 59.4028 24.464C58.4908 22.952 58.0348 21.236 58.0348 19.316C58.0348 17.396 58.4908 15.68 59.4028 14.168C60.3148 12.656 61.5748 11.48 63.1828 10.64C64.8148 9.776 66.6508 9.344 68.6908 9.344C70.7308 9.344 72.5548 9.776 74.1628 10.64C75.7708 11.48 77.0308 12.656 77.9428 14.168C78.8548 15.68 79.3108 17.396 79.3108 19.316C79.3108 21.236 78.8548 22.952 77.9428 24.464C77.0308 25.976 75.7708 27.164 74.1628 28.028C72.5548 28.868 70.7308 29.288 68.6908 29.288ZM68.6908 24.68C70.1308 24.68 71.3068 24.2 72.2188 23.24C73.1548 22.256 73.6228 20.948 73.6228 19.316C73.6228 17.684 73.1548 16.388 72.2188 15.428C71.3068 14.444 70.1308 13.952 68.6908 13.952C67.2508 13.952 66.0628 14.444 65.1268 15.428C64.1908 16.388 63.7228 17.684 63.7228 19.316C63.7228 20.948 64.1908 22.256 65.1268 23.24C66.0628 24.2 67.2508 24.68 68.6908 24.68ZM94.8367 9.344C97.2367 9.344 99.1687 10.064 100.633 11.504C102.121 12.944 102.865 15.08 102.865 17.912V29H97.2487V18.776C97.2487 17.24 96.9127 16.1 96.2407 15.356C95.5687 14.588 94.5967 14.204 93.3247 14.204C91.9087 14.204 90.7807 14.648 89.9407 15.536C89.1007 16.4 88.6807 17.696 88.6807 19.424V29H83.0647V9.632H88.4287V11.9C89.1727 11.084 90.0967 10.46 91.2007 10.028C92.3047 9.572 93.5167 9.344 94.8367 9.344ZM110.079 29.288C109.095 29.288 108.267 28.952 107.595 28.28C106.923 27.608 106.587 26.768 106.587 25.76C106.587 24.728 106.923 23.9 107.595 23.276C108.267 22.628 109.095 22.304 110.079 22.304C111.063 22.304 111.891 22.628 112.563 23.276C113.235 23.9 113.571 24.728 113.571 25.76C113.571 26.768 113.235 27.608 112.563 28.28C111.891 28.952 111.063 29.288 110.079 29.288ZM129.869 28.064C129.317 28.472 128.633 28.784 127.817 29C127.025 29.192 126.185 29.288 125.297 29.288C122.993 29.288 121.205 28.7 119.933 27.524C118.685 26.348 118.061 24.62 118.061 22.34V14.384H115.073V10.064H118.061V5.348H123.677V10.064H128.501V14.384H123.677V22.268C123.677 23.084 123.881 23.72 124.289 24.176C124.721 24.608 125.321 24.824 126.089 24.824C126.977 24.824 127.733 24.584 128.357 24.104L129.869 28.064ZM138.386 12.188C139.058 11.252 139.958 10.544 141.086 10.064C142.238 9.584 143.558 9.344 145.046 9.344V14.528C144.422 14.48 144.002 14.456 143.786 14.456C142.178 14.456 140.918 14.912 140.006 15.824C139.094 16.712 138.638 18.056 138.638 19.856V29H133.022V9.632H138.386V12.188ZM156.092 9.344C159.092 9.344 161.396 10.064 163.004 11.504C164.612 12.92 165.416 15.068 165.416 17.948V29H160.16V26.588C159.104 28.388 157.136 29.288 154.256 29.288C152.768 29.288 151.472 29.036 150.368 28.532C149.288 28.028 148.46 27.332 147.884 26.444C147.308 25.556 147.02 24.548 147.02 23.42C147.02 21.62 147.692 20.204 149.036 19.172C150.404 18.14 152.504 17.624 155.336 17.624H159.8C159.8 16.4 159.428 15.464 158.684 14.816C157.94 14.144 156.824 13.808 155.336 13.808C154.304 13.808 153.284 13.976 152.276 14.312C151.292 14.624 150.452 15.056 149.756 15.608L147.74 11.684C148.796 10.94 150.056 10.364 151.52 9.956C153.008 9.548 154.532 9.344 156.092 9.344ZM155.66 25.508C156.62 25.508 157.472 25.292 158.216 24.86C158.96 24.404 159.488 23.744 159.8 22.88V20.9H155.948C153.644 20.9 152.492 21.656 152.492 23.168C152.492 23.888 152.768 24.464 153.32 24.896C153.896 25.304 154.676 25.508 155.66 25.508ZM190.437 2.288V29H185.073V26.768C183.681 28.448 181.665 29.288 179.025 29.288C177.201 29.288 175.545 28.88 174.057 28.064C172.593 27.248 171.441 26.084 170.601 24.572C169.761 23.06 169.341 21.308 169.341 19.316C169.341 17.324 169.761 15.572 170.601 14.06C171.441 12.548 172.593 11.384 174.057 10.568C175.545 9.752 177.201 9.344 179.025 9.344C181.497 9.344 183.429 10.124 184.821 11.684V2.288H190.437ZM179.997 24.68C181.413 24.68 182.589 24.2 183.525 23.24C184.461 22.256 184.929 20.948 184.929 19.316C184.929 17.684 184.461 16.388 183.525 15.428C182.589 14.444 181.413 13.952 179.997 13.952C178.557 13.952 177.369 14.444 176.433 15.428C175.497 16.388 175.029 17.684 175.029 19.316C175.029 20.948 175.497 22.256 176.433 23.24C177.369 24.2 178.557 24.68 179.997 24.68ZM214.607 19.388C214.607 19.46 214.571 19.964 214.499 20.9H199.847C200.111 22.1 200.735 23.048 201.719 23.744C202.703 24.44 203.927 24.788 205.391 24.788C206.399 24.788 207.287 24.644 208.055 24.356C208.847 24.044 209.579 23.564 210.251 22.916L213.239 26.156C211.415 28.244 208.751 29.288 205.247 29.288C203.063 29.288 201.131 28.868 199.451 28.028C197.771 27.164 196.475 25.976 195.563 24.464C194.651 22.952 194.195 21.236 194.195 19.316C194.195 17.42 194.639 15.716 195.527 14.204C196.439 12.668 197.675 11.48 199.235 10.64C200.819 9.776 202.583 9.344 204.527 9.344C206.423 9.344 208.139 9.752 209.675 10.568C211.211 11.384 212.411 12.56 213.275 14.096C214.163 15.608 214.607 17.372 214.607 19.388ZM204.563 13.592C203.291 13.592 202.223 13.952 201.359 14.672C200.495 15.392 199.967 16.376 199.775 17.624H209.315C209.123 16.4 208.595 15.428 207.731 14.708C206.867 13.964 205.811 13.592 204.563 13.592Z" fill="white"/>
</svg>
